<svg xmlns="http://www.w3.org/2000/svg" version="1.1" xmlns:xlink="http://www.w3.org/1999/xlink" xmlns:svgjs="http://svgjs.dev/svgjs" width="500" height="250" viewBox="0 0 2000 1500"><rect width="2000" height="1500" fill="#ffffff"></rect><g transform="matrix(0.75,0,0,0.75,247.90598282466692,40.8447580645161)"><svg viewBox="0 0 263 248" data-background-color="#fefbf6" preserveAspectRatio="xMidYMid meet" height="1885" width="2000" xmlns="http://www.w3.org/2000/svg" xmlns:xlink="http://www.w3.org/1999/xlink"><g id="tight-bounds" transform="matrix(1,0,0,1,0.3671510114083958,0.4000000000000057)"><svg viewBox="0 0 262.2656979771832 247.2" height="247.2" width="262.2656979771832"><g><svg viewBox="0 0 293.3271894264375 276.4771824355149" height="247.2" width="262.2656979771832"><g transform="matrix(1,0,0,1,94.62239941149102,0)"><svg viewBox="0 0 198.70479001494644 276.4771824355149" height="276.4771824355149" width="198.70479001494644"><g id="textblocktransform"><svg viewBox="0 0 198.70479001494644 276.4771824355149" height="276.4771824355149" width="198.70479001494644" id="textblock"><g><svg viewBox="0 0 198.70479001494644 245.672304" height="245.672304" width="198.70479001494644"><g transform="matrix(1,0,0,1,0,0)"><svg width="198.70479001494644" viewBox="1.0999999999999992 -34.160000000000004 152.20000000000005 175.95" height="245.672304" data-palette-color="#29231d"><svg></svg><svg></svg><svg></svg><svg></svg><g class="wordmark-text-0" data-fill-palette-color="primary" id="text-0"><path d="M5.91-16.75v0c0 2.347 0.187 4.42 0.56 6.22 0.373 1.793 0.907 3.3 1.6 4.52 0.693 1.227 1.523 2.153 2.49 2.78 0.967 0.627 2.043 0.94 3.23 0.94v0c0.72 0 1.357-0.09 1.91-0.27 0.553-0.18 1.053-0.403 1.5-0.67 0.447-0.273 0.867-0.577 1.26-0.91 0.387-0.333 0.767-0.653 1.14-0.96v0 4.9c-0.907 0.233-1.82 0.417-2.74 0.55-0.92 0.14-1.943 0.21-3.07 0.21v0c-1.74 0-3.35-0.35-4.83-1.05-1.48-0.7-2.763-1.76-3.85-3.18-1.08-1.427-1.923-3.227-2.53-5.4-0.613-2.173-0.92-4.733-0.92-7.68v0c0-2.947 0.32-5.507 0.96-7.68 0.647-2.173 1.52-3.97 2.62-5.39 1.093-1.427 2.377-2.49 3.85-3.19 1.473-0.7 3.04-1.05 4.7-1.05v0c1.127 0 2.15 0.07 3.07 0.21 0.92 0.14 1.833 0.323 2.74 0.55v0 4.91c-0.373-0.313-0.753-0.637-1.14-0.97-0.393-0.333-0.813-0.633-1.26-0.9-0.447-0.267-0.947-0.49-1.5-0.67-0.553-0.18-1.19-0.27-1.91-0.27v0c-1.187 0-2.263 0.313-3.23 0.94-0.967 0.627-1.797 1.55-2.49 2.77-0.693 1.22-1.227 2.73-1.6 4.53-0.373 1.8-0.56 3.87-0.56 6.21zM40.31 0h-4.67l0.13-2.95c-0.393 0.44-0.793 0.873-1.2 1.3-0.407 0.433-0.863 0.817-1.37 1.15-0.5 0.333-1.073 0.603-1.72 0.81-0.64 0.2-1.4 0.3-2.28 0.3v0c-1.007 0-1.947-0.207-2.82-0.62-0.873-0.413-1.63-1.02-2.27-1.82-0.647-0.8-1.157-1.79-1.53-2.97-0.373-1.18-0.56-2.543-0.56-4.09v0c0-1.967 0.3-3.65 0.9-5.05 0.607-1.4 1.5-2.587 2.68-3.56 1.18-0.98 2.643-1.77 4.39-2.37 1.753-0.607 3.777-1.097 6.07-1.47v0c0-1.967-0.103-3.593-0.31-4.88-0.2-1.287-0.497-2.307-0.89-3.06-0.387-0.76-0.87-1.287-1.45-1.58-0.58-0.293-1.243-0.44-1.99-0.44v0c-0.653 0-1.303 0.103-1.95 0.31-0.653 0.2-1.3 0.47-1.94 0.81-0.647 0.347-1.29 0.743-1.93 1.19-0.647 0.447-1.277 0.913-1.89 1.4v0-4.73c0.68-0.26 1.33-0.5 1.95-0.72 0.62-0.22 1.243-0.413 1.87-0.58 0.627-0.16 1.257-0.29 1.89-0.39 0.633-0.1 1.31-0.15 2.03-0.15v0c1.427 0 2.673 0.197 3.74 0.59 1.067 0.393 1.953 1.013 2.66 1.86 0.713 0.847 1.243 1.937 1.59 3.27 0.353 1.333 0.53 2.937 0.53 4.81v0c0 0.18-0.007 0.48-0.02 0.9-0.007 0.427-0.013 0.923-0.02 1.49-0.007 0.567-0.017 1.177-0.03 1.83-0.007 0.653-0.013 1.297-0.02 1.93-0.007 0.633-0.013 1.23-0.02 1.79-0.013 0.567-0.02 1.037-0.02 1.41v0c0 0.86 0.01 1.833 0.03 2.92 0.013 1.08 0.04 2.23 0.08 3.45 0.04 1.22 0.09 2.497 0.15 3.83 0.06 1.333 0.13 2.693 0.21 4.08zM35.94-6.67v0c0.047-1.66 0.087-3.437 0.12-5.33 0.033-1.893 0.05-4.063 0.05-6.51v0c-2.067 0.247-3.737 0.647-5.01 1.2-1.267 0.553-2.25 1.233-2.95 2.04-0.7 0.807-1.173 1.723-1.42 2.75-0.24 1.02-0.36 2.133-0.36 3.34v0c0 1.027 0.093 1.953 0.28 2.78 0.187 0.833 0.46 1.54 0.82 2.12 0.353 0.573 0.777 1.017 1.27 1.33 0.487 0.307 1.04 0.46 1.66 0.46v0c0.7 0 1.313-0.127 1.84-0.38 0.527-0.253 1.007-0.58 1.44-0.98 0.433-0.393 0.827-0.84 1.18-1.34 0.36-0.493 0.72-0.987 1.08-1.48zM58.28-34.16v4.5c-2.153 0-4.027 0.3-5.62 0.9-1.593 0.6-2.763 1.51-3.51 2.73v0c-0.1 3.16-0.15 6.343-0.15 9.55v0c0 1.513 0.007 2.953 0.02 4.32 0.02 1.367 0.047 2.71 0.08 4.03 0.033 1.32 0.08 2.643 0.14 3.97 0.067 1.327 0.14 2.713 0.22 4.16v0h-4.51c0.08-1.447 0.147-2.833 0.2-4.16 0.06-1.327 0.11-2.65 0.15-3.97 0.04-1.32 0.07-2.663 0.09-4.03 0.013-1.367 0.02-2.807 0.02-4.32v0c0-1.513-0.007-2.983-0.02-4.41-0.02-1.42-0.05-2.827-0.09-4.22-0.04-1.393-0.09-2.783-0.15-4.17-0.053-1.393-0.12-2.813-0.2-4.26v0h4.54c-0.053 0.76-0.1 1.443-0.14 2.05-0.04 0.6-0.077 1.273-0.11 2.02v0c0.52-0.6 1.16-1.187 1.92-1.76 0.753-0.567 1.547-1.067 2.38-1.5 0.833-0.427 1.663-0.77 2.49-1.03 0.833-0.267 1.583-0.4 2.25-0.4zM61.21-33.54h4.61c-0.1 1.38-0.177 2.793-0.23 4.24-0.06 1.453-0.107 2.893-0.14 4.32-0.027 1.433-0.05 2.843-0.07 4.23-0.013 1.38-0.02 2.697-0.02 3.95v0c0 2.1 0.017 4.35 0.05 6.75 0.027 2.4 0.1 4.797 0.22 7.19v0h9.88v2.86h-14.3c0.093-1.387 0.17-2.807 0.23-4.26 0.053-1.46 0.097-2.91 0.13-4.35 0.033-1.44 0.06-2.85 0.08-4.23 0.013-1.387 0.02-2.707 0.02-3.96v0c0-1.253-0.007-2.57-0.02-3.95-0.02-1.387-0.047-2.797-0.08-4.23-0.033-1.427-0.077-2.867-0.13-4.32-0.06-1.447-0.137-2.86-0.23-4.24zM98.56-16.75v0c0 3.013-0.27 5.613-0.81 7.8-0.533 2.193-1.277 4-2.23 5.42-0.953 1.427-2.073 2.48-3.36 3.16-1.287 0.687-2.67 1.03-4.15 1.03v0c-1.493 0-2.883-0.343-4.17-1.03-1.287-0.68-2.407-1.733-3.36-3.16-0.953-1.42-1.703-3.227-2.25-5.42-0.54-2.187-0.81-4.787-0.81-7.8v0c0-2.993 0.27-5.583 0.81-7.77 0.547-2.193 1.297-4.007 2.25-5.44 0.953-1.427 2.073-2.483 3.36-3.17 1.287-0.687 2.677-1.03 4.17-1.03v0c1.48 0 2.863 0.343 4.15 1.03 1.287 0.687 2.407 1.743 3.36 3.17 0.953 1.433 1.697 3.247 2.23 5.44 0.54 2.187 0.81 4.777 0.81 7.77zM94.36-16.75v0c0-2.507-0.163-4.67-0.49-6.49-0.327-1.827-0.773-3.33-1.34-4.51-0.573-1.18-1.243-2.05-2.01-2.61-0.773-0.56-1.61-0.84-2.51-0.84v0c-0.907 0-1.747 0.28-2.52 0.84-0.773 0.56-1.45 1.43-2.03 2.61-0.58 1.18-1.033 2.683-1.36 4.51-0.32 1.82-0.48 3.983-0.48 6.49v0c0 2.527 0.16 4.7 0.48 6.52 0.327 1.82 0.78 3.317 1.36 4.49 0.58 1.173 1.257 2.04 2.03 2.6 0.773 0.567 1.613 0.85 2.52 0.85v0c0.9 0 1.737-0.283 2.51-0.85 0.767-0.56 1.437-1.427 2.01-2.6 0.567-1.173 1.013-2.67 1.34-4.49 0.327-1.82 0.49-3.993 0.49-6.52zM108.33-2.1v0c0.647 0 1.283-0.1 1.91-0.3 0.627-0.207 1.183-0.537 1.67-0.99 0.493-0.46 0.887-1.043 1.18-1.75 0.293-0.707 0.44-1.573 0.44-2.6v0c0-0.88-0.177-1.693-0.53-2.44-0.347-0.747-0.807-1.463-1.38-2.15-0.567-0.68-1.217-1.343-1.95-1.99-0.733-0.64-1.483-1.287-2.25-1.94-0.767-0.653-1.513-1.323-2.24-2.01-0.733-0.693-1.387-1.427-1.96-2.2-0.567-0.773-1.027-1.607-1.38-2.5-0.347-0.9-0.52-1.877-0.52-2.93v0c0-1.547 0.283-2.85 0.85-3.91 0.573-1.06 1.3-1.91 2.18-2.55 0.873-0.647 1.843-1.107 2.91-1.38 1.067-0.28 2.107-0.42 3.12-0.42v0c1.053 0 2.073 0.087 3.06 0.26 0.987 0.173 1.933 0.357 2.84 0.55v0 4.86c-0.52-0.44-1.01-0.84-1.47-1.2-0.467-0.353-0.93-0.657-1.39-0.91-0.467-0.253-0.943-0.45-1.43-0.59-0.493-0.14-1.017-0.21-1.57-0.21v0c-0.68 0-1.327 0.093-1.94 0.28-0.607 0.193-1.133 0.483-1.58 0.87-0.447 0.393-0.807 0.89-1.08 1.49-0.267 0.6-0.4 1.317-0.4 2.15v0c0 1.153 0.3 2.207 0.9 3.16 0.607 0.953 1.363 1.86 2.27 2.72 0.913 0.867 1.9 1.73 2.96 2.59 1.053 0.86 2.037 1.787 2.95 2.78 0.913 0.993 1.67 2.08 2.27 3.26 0.607 1.18 0.91 2.527 0.91 4.04v0c0 1.14-0.13 2.147-0.39 3.02-0.267 0.867-0.623 1.623-1.07 2.27-0.447 0.64-0.963 1.18-1.55 1.62-0.587 0.44-1.213 0.793-1.88 1.06-0.667 0.273-1.353 0.467-2.06 0.58-0.707 0.113-1.393 0.17-2.06 0.17v0c-0.8 0-1.533-0.03-2.2-0.09-0.667-0.053-1.29-0.133-1.87-0.24-0.573-0.107-1.11-0.23-1.61-0.37-0.493-0.133-0.977-0.283-1.45-0.45v0-5c0.5 0.467 1.003 0.91 1.51 1.33 0.507 0.413 1.033 0.773 1.58 1.08 0.54 0.313 1.113 0.553 1.72 0.72 0.6 0.173 1.26 0.26 1.98 0.26z" fill="#000000" fill-rule="nonzero" stroke="none" stroke-width="1" stroke-linecap="butt" stroke-linejoin="miter" stroke-miterlimit="10" stroke-dasharray="" stroke-dashoffset="0" font-family="none" font-weight="none" font-size="none" text-anchor="none" style="mix-blend-mode: normal" data-fill-palette-color="primary" opacity="1"></path><path transform="translate(0,47.04)" d="M12.06-13.67v-2.83h8.89c-0.067 1.333-0.113 2.643-0.14 3.93-0.02 1.287-0.03 2.513-0.03 3.68v0c0 1.173 0.003 2.243 0.01 3.21 0.007 0.973 0.027 1.81 0.06 2.51v0c0.033 0.827 0.067 1.567 0.1 2.22v0c-0.833 0.42-1.843 0.777-3.03 1.07-1.187 0.293-2.627 0.44-4.32 0.44v0c-1.693 0-3.263-0.35-4.71-1.05-1.453-0.7-2.717-1.76-3.79-3.18-1.073-1.427-1.913-3.227-2.52-5.4-0.613-2.173-0.92-4.733-0.92-7.68v0c0-2.947 0.32-5.507 0.96-7.68 0.647-2.173 1.523-3.97 2.63-5.39 1.107-1.427 2.397-2.49 3.87-3.19 1.473-0.7 3.04-1.05 4.7-1.05v0c0.68 0 1.297 0.03 1.85 0.09 0.553 0.053 1.07 0.13 1.55 0.23 0.48 0.1 0.933 0.223 1.36 0.37 0.42 0.147 0.833 0.3 1.24 0.46v0 4.93c-1.053-1.187-2.05-2.02-2.99-2.5-0.933-0.48-1.947-0.72-3.04-0.72v0c-1.253 0-2.367 0.347-3.34 1.04-0.98 0.687-1.807 1.667-2.48 2.94-0.673 1.267-1.187 2.783-1.54 4.55-0.347 1.767-0.52 3.723-0.52 5.87v0c0 2.087 0.163 4.013 0.49 5.78 0.32 1.767 0.807 3.297 1.46 4.59 0.653 1.293 1.47 2.307 2.45 3.04 0.987 0.733 2.14 1.1 3.46 1.1v0c0.567 0 1.067-0.047 1.5-0.14 0.433-0.087 0.86-0.247 1.28-0.48v0c0.02-0.353 0.037-0.767 0.05-1.24v0c0.02-0.407 0.037-0.9 0.05-1.48 0.013-0.573 0.02-1.243 0.02-2.01v0c0-0.833-0.01-1.753-0.03-2.76-0.027-1.007-0.073-2.097-0.14-3.27v0zM42.6 0h-4.66l0.12-2.95c-0.387 0.44-0.783 0.873-1.19 1.3-0.413 0.433-0.87 0.817-1.37 1.15-0.507 0.333-1.08 0.603-1.72 0.81-0.647 0.2-1.41 0.3-2.29 0.3v0c-1.007 0-1.947-0.207-2.82-0.62-0.867-0.413-1.623-1.02-2.27-1.82-0.64-0.8-1.147-1.79-1.52-2.97-0.373-1.18-0.56-2.543-0.56-4.09v0c0-1.967 0.3-3.65 0.9-5.05 0.6-1.4 1.49-2.587 2.67-3.56 1.18-0.98 2.647-1.77 4.4-2.37 1.747-0.607 3.767-1.097 6.06-1.47v0c0-1.967-0.1-3.593-0.3-4.88-0.207-1.287-0.503-2.307-0.89-3.06-0.393-0.76-0.877-1.287-1.45-1.58-0.58-0.293-1.243-0.44-1.99-0.44v0c-0.653 0-1.307 0.103-1.96 0.31-0.647 0.2-1.293 0.47-1.94 0.81-0.64 0.347-1.283 0.743-1.93 1.19-0.64 0.447-1.27 0.913-1.89 1.4v0-4.73c0.687-0.26 1.337-0.5 1.95-0.72 0.62-0.22 1.243-0.413 1.87-0.58 0.627-0.16 1.257-0.29 1.89-0.39 0.64-0.1 1.317-0.15 2.03-0.15v0c1.433 0 2.683 0.197 3.75 0.59 1.067 0.393 1.953 1.013 2.66 1.86 0.707 0.847 1.237 1.937 1.59 3.27 0.347 1.333 0.52 2.937 0.52 4.81v0c0 0.18-0.003 0.48-0.01 0.9-0.007 0.427-0.017 0.923-0.03 1.49-0.007 0.567-0.013 1.177-0.02 1.83-0.007 0.653-0.013 1.297-0.02 1.93-0.013 0.633-0.023 1.23-0.03 1.79-0.007 0.567-0.01 1.037-0.01 1.41v0c0 0.86 0.007 1.833 0.02 2.92 0.02 1.08 0.05 2.23 0.09 3.45 0.04 1.22 0.09 2.497 0.15 3.83 0.053 1.333 0.12 2.693 0.2 4.08zM38.23-6.67v0c0.053-1.66 0.093-3.437 0.12-5.33 0.033-1.893 0.05-4.063 0.05-6.51v0c-2.067 0.247-3.733 0.647-5 1.2-1.273 0.553-2.26 1.233-2.96 2.04-0.7 0.807-1.17 1.723-1.41 2.75-0.247 1.02-0.37 2.133-0.37 3.34v0c0 1.027 0.093 1.953 0.28 2.78 0.187 0.833 0.46 1.54 0.82 2.12 0.36 0.573 0.783 1.017 1.27 1.33 0.487 0.307 1.04 0.46 1.66 0.46v0c0.7 0 1.313-0.127 1.84-0.38 0.533-0.253 1.013-0.58 1.44-0.98 0.433-0.393 0.83-0.84 1.19-1.34 0.36-0.493 0.717-0.987 1.07-1.48zM52.91-2.1v0c0.647 0 1.283-0.1 1.91-0.3 0.627-0.207 1.183-0.537 1.67-0.99 0.493-0.46 0.887-1.043 1.18-1.75 0.293-0.707 0.44-1.573 0.44-2.6v0c0-0.88-0.177-1.693-0.53-2.44-0.347-0.747-0.807-1.463-1.38-2.15-0.567-0.68-1.217-1.343-1.95-1.99-0.733-0.64-1.483-1.287-2.25-1.94-0.767-0.653-1.513-1.323-2.24-2.01-0.733-0.693-1.387-1.427-1.96-2.2-0.567-0.773-1.027-1.607-1.38-2.5-0.347-0.9-0.52-1.877-0.52-2.93v0c0-1.547 0.283-2.85 0.85-3.91 0.573-1.06 1.3-1.91 2.18-2.55 0.873-0.647 1.843-1.107 2.91-1.38 1.067-0.28 2.107-0.42 3.12-0.42v0c1.053 0 2.073 0.087 3.06 0.26 0.987 0.173 1.933 0.357 2.84 0.55v0 4.86c-0.52-0.44-1.01-0.84-1.47-1.2-0.467-0.353-0.93-0.657-1.39-0.91-0.467-0.253-0.943-0.45-1.43-0.59-0.493-0.14-1.017-0.21-1.57-0.21v0c-0.68 0-1.327 0.093-1.94 0.28-0.607 0.193-1.133 0.483-1.58 0.87-0.447 0.393-0.807 0.89-1.08 1.49-0.267 0.6-0.4 1.317-0.4 2.15v0c0 1.153 0.3 2.207 0.9 3.16 0.607 0.953 1.363 1.86 2.27 2.72 0.913 0.867 1.9 1.73 2.96 2.59 1.053 0.86 2.037 1.787 2.95 2.78 0.913 0.993 1.67 2.08 2.27 3.26 0.607 1.18 0.91 2.527 0.91 4.04v0c0 1.14-0.13 2.147-0.39 3.02-0.267 0.867-0.623 1.623-1.07 2.27-0.447 0.64-0.963 1.18-1.55 1.62-0.587 0.44-1.213 0.793-1.88 1.06-0.667 0.273-1.353 0.467-2.06 0.58-0.707 0.113-1.393 0.17-2.06 0.17v0c-0.8 0-1.533-0.03-2.2-0.09-0.667-0.053-1.29-0.133-1.87-0.24-0.573-0.107-1.11-0.23-1.61-0.37-0.493-0.133-0.977-0.283-1.45-0.45v0-5c0.507 0.467 1.01 0.91 1.51 1.33 0.507 0.413 1.033 0.773 1.58 1.08 0.54 0.313 1.113 0.553 1.72 0.72 0.6 0.173 1.26 0.26 1.98 0.26zM63.84-30.69v-2.85h16.73v2.85h-6.23c-0.127 2.393-0.207 4.787-0.24 7.18-0.033 2.393-0.05 4.63-0.05 6.71v0c0 1.253 0.007 2.573 0.02 3.96 0.02 1.38 0.047 2.79 0.08 4.23 0.027 1.44 0.067 2.89 0.12 4.35 0.047 1.453 0.11 2.873 0.19 4.26v0h-4.56c0.093-1.387 0.17-2.807 0.23-4.26 0.053-1.46 0.097-2.91 0.13-4.35 0.033-1.44 0.06-2.85 0.08-4.23 0.013-1.387 0.02-2.707 0.02-3.96v0c0-2.08-0.02-4.317-0.06-6.71-0.04-2.393-0.117-4.787-0.23-7.18v0zM102.51-16.75v0c0 3.013-0.267 5.613-0.8 7.8-0.54 2.193-1.283 4-2.23 5.42-0.953 1.427-2.073 2.48-3.36 3.16-1.287 0.687-2.67 1.03-4.15 1.03v0c-1.5 0-2.893-0.343-4.18-1.03-1.287-0.68-2.403-1.733-3.35-3.16-0.953-1.42-1.703-3.227-2.25-5.42-0.547-2.187-0.82-4.787-0.82-7.8v0c0-2.993 0.273-5.583 0.82-7.77 0.547-2.193 1.297-4.007 2.25-5.44 0.947-1.427 2.063-2.483 3.35-3.17 1.287-0.687 2.68-1.03 4.18-1.03v0c1.48 0 2.863 0.343 4.15 1.03 1.287 0.687 2.407 1.743 3.36 3.17 0.947 1.433 1.69 3.247 2.23 5.44 0.533 2.187 0.8 4.777 0.8 7.77zM98.32-16.75v0c0-2.507-0.163-4.67-0.49-6.49-0.327-1.827-0.777-3.33-1.35-4.51-0.567-1.18-1.237-2.05-2.01-2.61-0.773-0.56-1.607-0.84-2.5-0.84v0c-0.913 0-1.757 0.28-2.53 0.84-0.773 0.56-1.45 1.43-2.03 2.61-0.573 1.18-1.023 2.683-1.35 4.51-0.327 1.82-0.49 3.983-0.49 6.49v0c0 2.527 0.163 4.7 0.49 6.52 0.327 1.82 0.777 3.317 1.35 4.49 0.58 1.173 1.257 2.04 2.03 2.6 0.773 0.567 1.617 0.85 2.53 0.85v0c0.893 0 1.727-0.283 2.5-0.85 0.773-0.56 1.443-1.427 2.01-2.6 0.573-1.173 1.023-2.67 1.35-4.49 0.327-1.82 0.49-3.993 0.49-6.52zM93.14-36.65h-2.59l3.2-6.73h4.35zM120.9-16.06v0c-0.033-2.54-0.087-4.76-0.16-6.66-0.073-1.893-0.227-3.463-0.46-4.71-0.24-1.247-0.587-2.177-1.04-2.79-0.46-0.62-1.087-0.93-1.88-0.93v0c-0.427 0-0.937 0.137-1.53 0.41-0.593 0.28-1.2 0.65-1.82 1.11-0.613 0.467-1.207 0.993-1.78 1.58-0.567 0.587-1.037 1.18-1.41 1.78v0c-0.1 3.22-0.15 6.483-0.15 9.79v0c0 1.513 0.007 2.953 0.02 4.32 0.02 1.367 0.047 2.71 0.08 4.03 0.033 1.32 0.08 2.643 0.14 3.97 0.067 1.327 0.14 2.713 0.22 4.16v0h-4.51c0.08-1.447 0.147-2.833 0.2-4.16 0.06-1.327 0.11-2.65 0.15-3.97 0.04-1.32 0.07-2.663 0.09-4.03 0.013-1.367 0.02-2.807 0.02-4.32v0c0-1.513-0.007-2.983-0.02-4.41-0.02-1.42-0.05-2.827-0.09-4.22-0.04-1.393-0.09-2.783-0.15-4.17-0.053-1.393-0.12-2.813-0.2-4.26v0h4.54l-0.22 3.78c0.487-0.587 1.03-1.143 1.63-1.67 0.607-0.533 1.233-1.003 1.88-1.41 0.653-0.407 1.323-0.727 2.01-0.96 0.68-0.24 1.353-0.36 2.02-0.36v0c1.94 0 3.443 0.77 4.51 2.31 1.06 1.54 1.59 3.83 1.59 6.87v0c0 0.753-0.003 1.557-0.01 2.41-0.007 0.853-0.017 1.69-0.03 2.51-0.02 0.827-0.033 1.59-0.04 2.29-0.007 0.7-0.01 1.27-0.01 1.71v0c0 1.513 0.007 2.927 0.02 4.24 0.02 1.32 0.043 2.617 0.07 3.89 0.033 1.267 0.08 2.543 0.14 3.83 0.053 1.287 0.123 2.653 0.21 4.1v0h-4.5c0.087-1.447 0.16-2.813 0.22-4.1 0.067-1.287 0.127-2.563 0.18-3.83 0.047-1.273 0.073-2.57 0.08-3.89 0.007-1.313 0.003-2.727-0.01-4.24z" fill="#000000" fill-rule="nonzero" stroke="none" stroke-width="1" stroke-linecap="butt" stroke-linejoin="miter" stroke-miterlimit="10" stroke-dasharray="" stroke-dashoffset="0" font-family="none" font-weight="none" font-size="none" text-anchor="none" style="mix-blend-mode: normal" data-fill-palette-color="primary" opacity="1"></path><path transform="translate(0,94.09)" d="M2.44-33.54h4.62c-0.1 1.38-0.18 2.793-0.24 4.24-0.053 1.453-0.097 2.893-0.13 4.32-0.033 1.433-0.057 2.843-0.07 4.23-0.02 1.38-0.03 2.697-0.03 3.95v0c0 2.1 0.017 4.35 0.05 6.75 0.033 2.4 0.107 4.797 0.22 7.19v0h9.89v2.86h-14.31c0.1-1.387 0.177-2.807 0.23-4.26 0.06-1.46 0.107-2.91 0.14-4.35 0.033-1.44 0.057-2.85 0.07-4.23 0.02-1.387 0.03-2.707 0.03-3.96v0c0-1.253-0.01-2.57-0.03-3.95-0.013-1.387-0.037-2.797-0.07-4.23-0.033-1.427-0.08-2.867-0.14-4.32-0.053-1.447-0.13-2.86-0.23-4.24zM23.41-17.48v0c0.02 1.187 0.037 2.323 0.05 3.41 0.02 1.08 0.047 2.097 0.08 3.05 0.027 0.953 0.067 1.82 0.12 2.6 0.047 0.78 0.11 1.453 0.19 2.02v0c0.213 1.42 0.62 2.443 1.22 3.07 0.607 0.627 1.38 0.94 2.32 0.94v0c0.54 0 1.093-0.14 1.66-0.42 0.573-0.273 1.123-0.64 1.65-1.1 0.527-0.453 1.03-0.973 1.51-1.56 0.48-0.587 0.91-1.19 1.29-1.81v0c0.093-3.22 0.14-6.483 0.14-9.79v0c0-1.513-0.007-2.953-0.02-4.32-0.02-1.367-0.05-2.71-0.09-4.03-0.04-1.313-0.087-2.633-0.14-3.96-0.06-1.327-0.13-2.713-0.21-4.16v0h4.52c-0.087 1.447-0.157 2.833-0.21 4.16-0.06 1.327-0.11 2.647-0.15 3.96-0.04 1.32-0.067 2.663-0.08 4.03-0.02 1.367-0.03 2.807-0.03 4.32v0c0 1.52 0.01 2.99 0.03 4.41 0.013 1.427 0.04 2.833 0.08 4.22 0.04 1.393 0.09 2.787 0.15 4.18 0.053 1.393 0.123 2.813 0.21 4.26v0h-4.55c0.033-0.633 0.067-1.263 0.1-1.89 0.033-0.627 0.067-1.25 0.1-1.87v0c-0.473 0.587-0.973 1.143-1.5 1.67-0.533 0.533-1.107 0.997-1.72 1.39-0.62 0.4-1.283 0.72-1.99 0.96-0.707 0.233-1.477 0.35-2.31 0.35v0c-1.94 0-3.44-0.77-4.5-2.31-1.067-1.533-1.6-3.823-1.6-6.87v0c0-0.747 0.003-1.547 0.01-2.4 0.007-0.86 0.02-1.7 0.04-2.52 0.013-0.82 0.023-1.58 0.03-2.28 0.007-0.7 0.01-1.27 0.01-1.71v0c0-1.513-0.007-2.93-0.02-4.25-0.013-1.32-0.037-2.613-0.07-3.88-0.033-1.267-0.08-2.543-0.14-3.83-0.053-1.287-0.123-2.653-0.21-4.1v0h4.5c-0.087 1.447-0.16 2.813-0.22 4.1-0.067 1.287-0.12 2.563-0.16 3.83-0.04 1.267-0.07 2.56-0.09 3.88-0.013 1.32-0.013 2.737 0 4.25zM46.04-16.75v0c0 2.347 0.19 4.42 0.57 6.22 0.373 1.793 0.907 3.3 1.6 4.52 0.687 1.227 1.517 2.153 2.49 2.78 0.967 0.627 2.043 0.94 3.23 0.94v0c0.713 0 1.347-0.09 1.9-0.27 0.56-0.18 1.063-0.403 1.51-0.67 0.447-0.273 0.863-0.577 1.25-0.91 0.393-0.333 0.777-0.653 1.15-0.96v0 4.9c-0.913 0.233-1.83 0.417-2.75 0.55-0.913 0.14-1.933 0.21-3.06 0.21v0c-1.74 0-3.35-0.35-4.83-1.05-1.48-0.7-2.763-1.76-3.85-3.18-1.08-1.427-1.927-3.227-2.54-5.4-0.607-2.173-0.91-4.733-0.91-7.68v0c0-2.947 0.32-5.507 0.96-7.68 0.647-2.173 1.517-3.97 2.61-5.39 1.1-1.427 2.387-2.49 3.86-3.19 1.473-0.7 3.04-1.05 4.7-1.05v0c1.127 0 2.147 0.07 3.06 0.21 0.92 0.14 1.837 0.323 2.75 0.55v0 4.91c-0.373-0.313-0.757-0.637-1.15-0.97-0.387-0.333-0.803-0.633-1.25-0.9-0.447-0.267-0.95-0.49-1.51-0.67-0.553-0.18-1.187-0.27-1.9-0.27v0c-1.187 0-2.263 0.313-3.23 0.94-0.973 0.627-1.803 1.55-2.49 2.77-0.693 1.22-1.227 2.73-1.6 4.53-0.38 1.8-0.57 3.87-0.57 6.21zM74.29-2.2v0c0.72 0 1.367-0.09 1.94-0.27 0.58-0.173 1.113-0.397 1.6-0.67 0.487-0.267 0.933-0.567 1.34-0.9 0.413-0.333 0.807-0.653 1.18-0.96v0 4.8c-0.427 0.087-0.857 0.177-1.29 0.27-0.427 0.1-0.907 0.19-1.44 0.27-0.527 0.08-1.117 0.153-1.77 0.22-0.647 0.067-1.393 0.1-2.24 0.1v0c-1.713 0-3.247-0.393-4.6-1.18-1.36-0.793-2.517-1.933-3.47-3.42-0.953-1.493-1.683-3.31-2.19-5.45-0.5-2.14-0.75-4.56-0.75-7.26v0c0-2.607 0.21-4.987 0.63-7.14 0.427-2.16 1.05-4.003 1.87-5.53 0.82-1.533 1.837-2.723 3.05-3.57 1.213-0.847 2.617-1.27 4.21-1.27v0c1.647 0 3.06 0.38 4.24 1.14 1.18 0.76 2.147 1.86 2.9 3.3 0.76 1.44 1.313 3.21 1.66 5.31 0.353 2.1 0.53 4.5 0.53 7.2v0 0.9h-14.75c0.1 2.587 0.31 4.777 0.63 6.57 0.313 1.787 0.763 3.243 1.35 4.37 0.587 1.12 1.323 1.93 2.21 2.43 0.887 0.493 1.94 0.74 3.16 0.74zM66.99-19.14h10.5c-0.033-0.947-0.083-1.907-0.15-2.88-0.06-0.98-0.16-1.923-0.3-2.83-0.14-0.913-0.327-1.77-0.56-2.57-0.24-0.793-0.547-1.483-0.92-2.07-0.373-0.587-0.83-1.05-1.37-1.39-0.533-0.347-1.167-0.52-1.9-0.52v0c-0.973 0-1.783 0.36-2.43 1.08-0.64 0.713-1.16 1.65-1.56 2.81-0.4 1.153-0.697 2.463-0.89 3.93-0.2 1.46-0.34 2.94-0.42 4.44zM98.93-34.16v4.5c-2.153 0-4.027 0.3-5.62 0.9-1.593 0.6-2.767 1.51-3.52 2.73v0c-0.093 3.16-0.14 6.343-0.14 9.55v0c0 1.513 0.007 2.953 0.02 4.32 0.02 1.367 0.047 2.71 0.08 4.03 0.027 1.32 0.073 2.643 0.14 3.97 0.067 1.327 0.14 2.713 0.22 4.16v0h-4.51c0.08-1.447 0.147-2.833 0.2-4.16 0.06-1.327 0.11-2.65 0.15-3.97 0.04-1.32 0.07-2.663 0.09-4.03 0.013-1.367 0.02-2.807 0.02-4.32v0c0-1.513-0.007-2.983-0.02-4.41-0.02-1.42-0.05-2.827-0.09-4.22-0.04-1.393-0.09-2.783-0.15-4.17-0.053-1.393-0.12-2.813-0.2-4.26v0h4.54c-0.053 0.76-0.1 1.443-0.14 2.05-0.04 0.6-0.077 1.273-0.11 2.02v0c0.52-0.6 1.16-1.187 1.92-1.76 0.753-0.567 1.547-1.067 2.38-1.5 0.827-0.427 1.657-0.77 2.49-1.03 0.827-0.267 1.577-0.4 2.25-0.4zM120.26-16.75v0c0 3.013-0.267 5.613-0.8 7.8-0.54 2.193-1.287 4-2.24 5.42-0.947 1.427-2.063 2.48-3.35 3.16-1.287 0.687-2.67 1.03-4.15 1.03v0c-1.5 0-2.893-0.343-4.18-1.03-1.287-0.68-2.403-1.733-3.35-3.16-0.953-1.42-1.703-3.227-2.25-5.42-0.547-2.187-0.82-4.787-0.82-7.8v0c0-2.993 0.273-5.583 0.82-7.77 0.547-2.193 1.297-4.007 2.25-5.44 0.947-1.427 2.063-2.483 3.35-3.17 1.287-0.687 2.68-1.03 4.18-1.03v0c1.48 0 2.863 0.343 4.15 1.03 1.287 0.687 2.403 1.743 3.35 3.17 0.953 1.433 1.7 3.247 2.24 5.44 0.533 2.187 0.8 4.777 0.8 7.77zM116.06-16.75v0c0-2.507-0.16-4.67-0.48-6.49-0.327-1.827-0.777-3.33-1.35-4.51-0.567-1.18-1.237-2.05-2.01-2.61-0.773-0.56-1.607-0.84-2.5-0.84v0c-0.913 0-1.757 0.28-2.53 0.84-0.773 0.56-1.45 1.43-2.03 2.61-0.573 1.18-1.023 2.683-1.35 4.51-0.327 1.82-0.49 3.983-0.49 6.49v0c0 2.527 0.163 4.7 0.49 6.52 0.327 1.82 0.777 3.317 1.35 4.49 0.58 1.173 1.257 2.04 2.03 2.6 0.773 0.567 1.617 0.85 2.53 0.85v0c0.893 0 1.727-0.283 2.5-0.85 0.773-0.56 1.443-1.427 2.01-2.6 0.573-1.173 1.023-2.67 1.35-4.49 0.32-1.82 0.48-3.993 0.48-6.52z" fill="#000000" fill-rule="nonzero" stroke="none" stroke-width="1" stroke-linecap="butt" stroke-linejoin="miter" stroke-miterlimit="10" stroke-dasharray="" stroke-dashoffset="0" font-family="none" font-weight="none" font-size="none" text-anchor="none" style="mix-blend-mode: normal" data-fill-palette-color="primary" opacity="1"></path><path transform="translate(0,141.13)" d="M8.11-2.1v0c0.647 0 1.283-0.1 1.91-0.3 0.627-0.207 1.183-0.537 1.67-0.99 0.493-0.46 0.887-1.043 1.18-1.75 0.293-0.707 0.44-1.573 0.44-2.6v0c0-0.88-0.177-1.693-0.53-2.44-0.347-0.747-0.807-1.463-1.38-2.15-0.567-0.68-1.217-1.343-1.95-1.99-0.733-0.64-1.483-1.287-2.25-1.94-0.767-0.653-1.513-1.323-2.24-2.01-0.733-0.693-1.387-1.427-1.96-2.2-0.567-0.773-1.027-1.607-1.38-2.5-0.347-0.9-0.52-1.877-0.52-2.93v0c0-1.547 0.283-2.85 0.85-3.91 0.573-1.06 1.3-1.91 2.18-2.55 0.873-0.647 1.843-1.107 2.91-1.38 1.067-0.28 2.107-0.42 3.12-0.42v0c1.053 0 2.073 0.087 3.06 0.26 0.987 0.173 1.933 0.357 2.84 0.55v0 4.86c-0.52-0.44-1.01-0.84-1.47-1.2-0.467-0.353-0.93-0.657-1.39-0.91-0.467-0.253-0.943-0.45-1.43-0.59-0.487-0.14-1.007-0.21-1.56-0.21v0c-0.687 0-1.337 0.093-1.95 0.28-0.607 0.193-1.133 0.483-1.58 0.87-0.447 0.393-0.807 0.89-1.08 1.49-0.267 0.6-0.4 1.317-0.4 2.15v0c0 1.153 0.3 2.207 0.9 3.16 0.607 0.953 1.363 1.86 2.27 2.72 0.913 0.867 1.9 1.73 2.96 2.59 1.06 0.86 2.043 1.787 2.95 2.78 0.913 0.993 1.67 2.08 2.27 3.26 0.607 1.18 0.91 2.527 0.91 4.04v0c0 1.14-0.13 2.147-0.39 3.02-0.267 0.867-0.623 1.623-1.07 2.27-0.447 0.64-0.963 1.18-1.55 1.62-0.587 0.44-1.213 0.793-1.88 1.06-0.667 0.273-1.353 0.467-2.06 0.58-0.707 0.113-1.393 0.17-2.06 0.17v0c-0.8 0-1.533-0.03-2.2-0.09-0.667-0.053-1.29-0.133-1.87-0.24-0.573-0.107-1.11-0.23-1.61-0.37-0.493-0.133-0.977-0.283-1.45-0.45v0-5c0.507 0.467 1.01 0.91 1.51 1.33 0.507 0.413 1.033 0.773 1.58 1.08 0.54 0.313 1.113 0.553 1.72 0.72 0.6 0.173 1.26 0.26 1.98 0.26zM21.12-33.54h4.61c-0.147 2.26-0.25 4.57-0.31 6.93-0.067 2.36-0.117 4.637-0.15 6.83v0c0.587-0.86 1.197-1.81 1.83-2.85 0.633-1.04 1.287-2.147 1.96-3.32 0.68-1.173 1.36-2.4 2.04-3.68 0.687-1.273 1.363-2.577 2.03-3.91v0h5.08c-0.72 0.973-1.493 2.053-2.32 3.24-0.833 1.187-1.673 2.407-2.52 3.66-0.847 1.253-1.683 2.517-2.51 3.79-0.833 1.267-1.613 2.463-2.34 3.59v0c0.68 1.593 1.41 3.2 2.19 4.82 0.78 1.62 1.623 3.237 2.53 4.85 0.9 1.607 1.873 3.213 2.92 4.82 1.04 1.6 2.163 3.19 3.37 4.77v0h-5.15c-0.413-0.62-0.853-1.34-1.32-2.16-0.473-0.82-0.96-1.7-1.46-2.64-0.493-0.933-0.993-1.903-1.5-2.91-0.5-1.013-0.99-2.013-1.47-3-0.48-0.98-0.933-1.93-1.36-2.85-0.42-0.92-0.803-1.763-1.15-2.53v0l-0.85 1.44c0 1.127 0.013 2.303 0.04 3.53 0.02 1.227 0.047 2.477 0.08 3.75 0.033 1.267 0.073 2.527 0.12 3.78 0.053 1.253 0.11 2.45 0.17 3.59v0h-4.56c0.093-1.387 0.17-2.807 0.23-4.26 0.06-1.46 0.103-2.91 0.13-4.35 0.033-1.44 0.06-2.85 0.08-4.23 0.013-1.387 0.02-2.707 0.02-3.96v0c0-1.253-0.007-2.57-0.02-3.95-0.02-1.387-0.047-2.797-0.08-4.23-0.027-1.427-0.07-2.867-0.13-4.32-0.06-1.447-0.137-2.86-0.23-4.24zM58.54 0h-4.66l0.12-2.95c-0.387 0.44-0.783 0.873-1.19 1.3-0.407 0.433-0.863 0.817-1.37 1.15-0.507 0.333-1.08 0.603-1.72 0.81-0.647 0.2-1.407 0.3-2.28 0.3v0c-1.013 0-1.953-0.207-2.82-0.62-0.873-0.413-1.63-1.02-2.27-1.82-0.647-0.8-1.157-1.79-1.53-2.97-0.373-1.18-0.56-2.543-0.56-4.09v0c0-1.967 0.3-3.65 0.9-5.05 0.607-1.4 1.5-2.587 2.68-3.56 1.18-0.98 2.643-1.77 4.39-2.37 1.747-0.607 3.77-1.097 6.07-1.47v0c0-1.967-0.103-3.593-0.31-4.88-0.2-1.287-0.497-2.307-0.89-3.06-0.393-0.76-0.877-1.287-1.45-1.58-0.58-0.293-1.243-0.44-1.99-0.44v0c-0.653 0-1.303 0.103-1.95 0.31-0.653 0.2-1.303 0.47-1.95 0.81-0.64 0.347-1.28 0.743-1.92 1.19-0.647 0.447-1.28 0.913-1.9 1.4v0-4.73c0.687-0.26 1.34-0.5 1.96-0.72 0.613-0.22 1.233-0.413 1.86-0.58 0.627-0.16 1.26-0.29 1.9-0.39 0.633-0.1 1.307-0.15 2.02-0.15v0c1.433 0 2.683 0.197 3.75 0.59 1.067 0.393 1.953 1.013 2.66 1.86 0.707 0.847 1.237 1.937 1.59 3.27 0.347 1.333 0.52 2.937 0.52 4.81v0c0 0.18-0.003 0.48-0.01 0.9-0.007 0.427-0.013 0.923-0.02 1.49-0.013 0.567-0.023 1.177-0.03 1.83-0.007 0.653-0.013 1.297-0.02 1.93-0.007 0.633-0.017 1.23-0.03 1.79-0.007 0.567-0.01 1.037-0.01 1.41v0c0 0.86 0.01 1.833 0.03 2.92 0.013 1.08 0.04 2.23 0.08 3.45 0.04 1.22 0.09 2.497 0.15 3.83 0.053 1.333 0.12 2.693 0.2 4.08zM54.17-6.67v0c0.053-1.66 0.097-3.437 0.13-5.33 0.033-1.893 0.05-4.063 0.05-6.51v0c-2.067 0.247-3.737 0.647-5.01 1.2-1.267 0.553-2.25 1.233-2.95 2.04-0.7 0.807-1.173 1.723-1.42 2.75-0.247 1.02-0.37 2.133-0.37 3.34v0c0 1.027 0.097 1.953 0.29 2.78 0.187 0.833 0.457 1.54 0.81 2.12 0.36 0.573 0.783 1.017 1.27 1.33 0.493 0.307 1.047 0.46 1.66 0.46v0c0.7 0 1.317-0.127 1.85-0.38 0.527-0.253 1.007-0.58 1.44-0.98 0.427-0.393 0.82-0.84 1.18-1.34 0.36-0.493 0.717-0.987 1.07-1.48zM75.85-16.06v0c-0.027-2.54-0.077-4.76-0.15-6.66-0.073-1.893-0.23-3.463-0.47-4.71-0.233-1.247-0.58-2.177-1.04-2.79-0.453-0.62-1.08-0.93-1.88-0.93v0c-0.287 0-0.63 0.073-1.03 0.22-0.4 0.147-0.817 0.347-1.25 0.6-0.433 0.247-0.867 0.547-1.3 0.9-0.44 0.347-0.863 0.717-1.27 1.11v0c-0.087 1.967-0.143 3.923-0.17 5.87-0.033 1.947-0.05 3.937-0.05 5.97v0c0 1.513 0.007 2.953 0.02 4.32 0.02 1.367 0.043 2.71 0.07 4.03 0.033 1.32 0.083 2.643 0.15 3.97 0.067 1.327 0.14 2.713 0.22 4.16v0h-4.52c0.087-1.447 0.157-2.833 0.21-4.16 0.06-1.327 0.11-2.65 0.15-3.97 0.04-1.32 0.067-2.663 0.08-4.03 0.02-1.367 0.03-2.807 0.03-4.32v0c0-1.513-0.01-2.983-0.03-4.41-0.013-1.42-0.04-2.827-0.08-4.22-0.04-1.393-0.09-2.783-0.15-4.17-0.053-1.393-0.123-2.813-0.21-4.26v0h4.54l-0.12 2.05c0.88-0.787 1.83-1.427 2.85-1.92 1.013-0.5 2.01-0.75 2.99-0.75v0c1.22 0 2.273 0.313 3.16 0.94 0.887 0.627 1.573 1.567 2.06 2.82v0c0.487-0.52 1.013-1.007 1.58-1.46 0.56-0.453 1.137-0.853 1.73-1.2 0.593-0.34 1.203-0.607 1.83-0.8 0.627-0.2 1.24-0.3 1.84-0.3v0c1.94 0 3.443 0.77 4.51 2.31 1.067 1.54 1.6 3.83 1.6 6.87v0c0 0.753-0.003 1.557-0.01 2.41-0.013 0.853-0.027 1.69-0.04 2.51-0.02 0.827-0.033 1.59-0.04 2.29-0.007 0.7-0.01 1.27-0.01 1.71v0c0 1.513 0.007 2.927 0.02 4.24 0.02 1.32 0.047 2.617 0.08 3.89 0.033 1.267 0.077 2.543 0.13 3.83 0.06 1.287 0.13 2.653 0.21 4.1v0h-4.49c0.08-1.447 0.153-2.813 0.22-4.1 0.067-1.287 0.123-2.563 0.17-3.83 0.047-1.273 0.073-2.57 0.08-3.89 0.013-1.313 0.01-2.727-0.01-4.24v0c-0.033-2.54-0.087-4.76-0.16-6.66-0.073-1.893-0.227-3.463-0.46-4.71-0.24-1.247-0.587-2.177-1.04-2.79-0.453-0.62-1.08-0.93-1.88-0.93v0c-0.327 0-0.7 0.083-1.12 0.25-0.427 0.173-0.87 0.403-1.33 0.69-0.467 0.28-0.94 0.617-1.42 1.01-0.48 0.393-0.923 0.81-1.33 1.25v0c0.147 0.907 0.22 1.897 0.22 2.97v0c0 0.753-0.003 1.557-0.01 2.41-0.007 0.853-0.02 1.69-0.04 2.51-0.013 0.827-0.023 1.59-0.03 2.29-0.013 0.7-0.02 1.27-0.02 1.71v0c0 1.513 0.01 2.927 0.03 4.24 0.013 1.32 0.037 2.617 0.07 3.89 0.033 1.267 0.08 2.543 0.14 3.83 0.053 1.287 0.12 2.653 0.2 4.1v0h-4.49c0.08-1.447 0.153-2.813 0.22-4.1 0.067-1.287 0.123-2.563 0.17-3.83 0.047-1.273 0.077-2.57 0.09-3.89 0.007-1.313 0-2.727-0.02-4.24zM96.92-33.54h4.62c-0.1 1.38-0.177 2.793-0.23 4.24-0.06 1.453-0.107 2.893-0.14 4.32-0.033 1.433-0.057 2.843-0.07 4.23-0.02 1.38-0.03 2.697-0.03 3.95v0c0 2.1 0.017 4.35 0.05 6.75 0.033 2.4 0.107 4.797 0.22 7.19v0h9.89v2.86h-14.31c0.1-1.387 0.18-2.807 0.24-4.26 0.053-1.46 0.097-2.91 0.13-4.35 0.033-1.44 0.057-2.85 0.07-4.23 0.02-1.387 0.03-2.707 0.03-3.96v0c0-1.253-0.01-2.57-0.03-3.95-0.013-1.387-0.037-2.797-0.07-4.23-0.033-1.427-0.077-2.867-0.13-4.32-0.06-1.447-0.14-2.86-0.24-4.24zM124.83-2.2v0c0.713 0 1.36-0.09 1.94-0.27 0.58-0.173 1.113-0.397 1.6-0.67 0.487-0.267 0.933-0.567 1.34-0.9 0.407-0.333 0.797-0.653 1.17-0.96v0 4.8c-0.42 0.087-0.847 0.177-1.28 0.27-0.427 0.1-0.907 0.19-1.44 0.27-0.527 0.08-1.117 0.153-1.77 0.22-0.647 0.067-1.393 0.1-2.24 0.1v0c-1.713 0-3.25-0.393-4.61-1.18-1.36-0.793-2.513-1.933-3.46-3.42-0.953-1.493-1.683-3.31-2.19-5.45-0.507-2.14-0.76-4.56-0.76-7.26v0c0-2.607 0.213-4.987 0.64-7.14 0.42-2.16 1.043-4.003 1.87-5.53 0.82-1.533 1.837-2.723 3.05-3.57 1.213-0.847 2.617-1.27 4.21-1.27v0c1.647 0 3.06 0.38 4.24 1.14 1.18 0.76 2.147 1.86 2.9 3.3 0.76 1.44 1.313 3.21 1.66 5.31 0.353 2.1 0.53 4.5 0.53 7.2v0 0.9h-14.75c0.1 2.587 0.307 4.777 0.62 6.57 0.32 1.787 0.773 3.243 1.36 4.37 0.587 1.12 1.323 1.93 2.21 2.43 0.887 0.493 1.94 0.74 3.16 0.74zM117.53-19.14h10.5c-0.033-0.947-0.083-1.907-0.15-2.88-0.067-0.98-0.167-1.923-0.3-2.83-0.14-0.913-0.33-1.77-0.57-2.57-0.233-0.793-0.537-1.483-0.91-2.07-0.373-0.587-0.83-1.05-1.37-1.39-0.533-0.347-1.167-0.52-1.9-0.52v0c-0.98 0-1.79 0.36-2.43 1.08-0.647 0.713-1.167 1.65-1.56 2.81-0.4 1.153-0.7 2.463-0.9 3.93-0.193 1.46-0.33 2.94-0.41 4.44zM139.6-16.75v0c0 2.347 0.187 4.42 0.56 6.22 0.373 1.793 0.907 3.3 1.6 4.52 0.693 1.227 1.523 2.153 2.49 2.78 0.967 0.627 2.047 0.94 3.24 0.94v0c0.713 0 1.347-0.09 1.9-0.27 0.553-0.18 1.053-0.403 1.5-0.67 0.447-0.273 0.867-0.577 1.26-0.91 0.387-0.333 0.77-0.653 1.15-0.96v0 4.9c-0.913 0.233-1.83 0.417-2.75 0.55-0.92 0.14-1.94 0.21-3.06 0.21v0c-1.747 0-3.36-0.35-4.84-1.05-1.48-0.7-2.76-1.76-3.84-3.18-1.087-1.427-1.933-3.227-2.54-5.4-0.613-2.173-0.92-4.733-0.92-7.68v0c0-2.947 0.323-5.507 0.97-7.68 0.64-2.173 1.51-3.97 2.61-5.39 1.1-1.427 2.387-2.49 3.86-3.19 1.473-0.7 3.04-1.05 4.7-1.05v0c1.12 0 2.14 0.07 3.06 0.21 0.92 0.14 1.837 0.323 2.75 0.55v0 4.91c-0.38-0.313-0.763-0.637-1.15-0.97-0.393-0.333-0.813-0.633-1.26-0.9-0.447-0.267-0.947-0.49-1.5-0.67-0.553-0.18-1.187-0.27-1.9-0.27v0c-1.193 0-2.273 0.313-3.24 0.94-0.967 0.627-1.797 1.55-2.49 2.77-0.693 1.22-1.227 2.73-1.6 4.53-0.373 1.8-0.56 3.87-0.56 6.21z" fill="#000000" fill-rule="nonzero" stroke="none" stroke-width="1" stroke-linecap="butt" stroke-linejoin="miter" stroke-miterlimit="10" stroke-dasharray="" stroke-dashoffset="0" font-family="none" font-weight="none" font-size="none" text-anchor="none" style="mix-blend-mode: normal" data-fill-palette-color="primary" opacity="1"></path></g></svg></g></svg></g><g transform="matrix(1,0,0,1,0,259.2469936601947)"><svg viewBox="0 0 134.02638086508136 17.230188775320272" height="17.230188775320272" width="134.02638086508136"><g transform="matrix(1,0,0,1,0,0)"><svg width="134.02638086508136" viewBox="0.35 -37.7 377.60999999999996 48.550000000000004" height="17.230188775320272" data-palette-color="#29231d"><path d="M11.75-35.25Q14.75-35.25 17.05-34.2 19.35-33.15 21.3-31.05L21.3-31.05 18.35-27.65Q16.8-29.05 15.33-29.75 13.85-30.45 12.2-30.45L12.2-30.45Q10.3-30.45 9.2-29.28 8.1-28.1 8.1-26.2L8.1-26.2Q8.1-24.3 9.25-23.1 10.4-21.9 13.75-20.6L13.75-20.6Q18.05-18.85 20.08-16.5 22.1-14.15 22.1-9.85L22.1-9.85Q22.1-6.9 20.75-4.48 19.4-2.05 16.88-0.65 14.35 0.75 11 0.75L11 0.75Q7.55 0.75 5-0.48 2.45-1.7 0.35-3.95L0.35-3.95 3.55-7.45Q5.35-5.85 7-5 8.65-4.15 10.6-4.15L10.6-4.15Q12.9-4.15 14.18-5.58 15.45-7 15.45-9.45L15.45-9.45Q15.45-11.6 14.33-12.98 13.2-14.35 10.15-15.5L10.15-15.5Q5.55-17.35 3.53-19.75 1.5-22.15 1.5-25.75L1.5-25.75Q1.5-28.5 2.83-30.65 4.15-32.8 6.5-34.02 8.85-35.25 11.75-35.25L11.75-35.25ZM35.5-27.15Q40.5-27.15 43.27-23.65 46.05-20.15 46.05-13.25L46.05-13.25Q46.05-6.65 43.25-2.95 40.45 0.75 35.5 0.75L35.5 0.75Q30.55 0.75 27.75-2.88 24.95-6.5 24.95-13.25L24.95-13.25Q24.95-19.95 27.75-23.55 30.55-27.15 35.5-27.15L35.5-27.15ZM35.5-22.5Q33.35-22.5 32.35-20.38 31.35-18.25 31.35-13.25L31.35-13.25Q31.35-8.2 32.35-6.08 33.35-3.95 35.5-3.95L35.5-3.95Q37.65-3.95 38.65-6.08 39.65-8.2 39.65-13.25L39.65-13.25Q39.65-18.3 38.65-20.4 37.65-22.5 35.5-22.5L35.5-22.5ZM60.3-33.05Q58.9-33.05 58.22-32.3 57.55-31.55 57.55-30L57.55-30 57.55-26.45 62.6-26.45 61.9-22 57.55-22 57.55 0 51.4 0 51.4-22 48.1-22 48.1-26.45 51.4-26.45 51.4-29.8Q51.4-33.4 53.5-35.55 55.6-37.7 59.5-37.7L59.5-37.7Q62.55-37.7 65.4-36.2L65.4-36.2 63.7-32.2Q61.95-33.05 60.3-33.05L60.3-33.05ZM76.54-5L78.69-1.2Q76.24 0.75 72.94 0.75L72.94 0.75Q69.49 0.75 67.69-1.23 65.89-3.2 65.89-6.6L65.89-6.6 65.89-22 62.79-22 62.79-26.45 65.89-26.45 65.89-32.3 72.04-33.05 72.04-26.45 77.04-26.45 76.44-22 72.04-22 72.04-6.6Q72.04-4.2 74.09-4.2L74.09-4.2Q74.74-4.2 75.24-4.38 75.74-4.55 76.54-5L76.54-5ZM103.29-26.45L108.99-26.45 104.44 0 96.94 0 93.99-20.85 91.09 0 83.64 0 78.99-26.45 84.94-26.45 87.64-4.6 90.99-26.45 97.24-26.45 100.44-4.6 103.29-26.45ZM129.39-6.4Q129.39-5.1 129.74-4.48 130.09-3.85 130.89-3.45L130.89-3.45 129.64 0.65Q127.59 0.4 126.36-0.45 125.14-1.3 124.54-3.05L124.54-3.05Q122.24 0.75 118.09 0.75L118.09 0.75Q114.79 0.75 112.84-1.48 110.89-3.7 110.89-7.4L110.89-7.4Q110.89-11.7 113.56-13.95 116.24-16.2 121.34-16.2L121.34-16.2 123.39-16.2 123.39-18.05Q123.39-20.55 122.51-21.58 121.64-22.6 119.69-22.6L119.69-22.6Q117.34-22.6 113.84-21.3L113.84-21.3 112.44-25.3Q114.44-26.2 116.59-26.68 118.74-27.15 120.69-27.15L120.69-27.15Q129.39-27.15 129.39-18.35L129.39-18.35 129.39-6.4ZM119.74-3.7Q122.14-3.7 123.39-7L123.39-7 123.39-12.55 121.94-12.55Q119.39-12.55 118.21-11.4 117.04-10.25 117.04-7.85L117.04-7.85Q117.04-5.8 117.74-4.75 118.44-3.7 119.74-3.7L119.74-3.7ZM146.84-27.1Q147.99-27.1 148.89-26.75L148.89-26.75 147.89-20.85Q146.89-21.1 146.04-21.1L146.04-21.1Q144.14-21.1 143.04-19.45 141.94-17.8 141.34-14.55L141.34-14.55 141.34 0 135.19 0 135.19-26.45 140.54-26.45 140.99-21.85Q142.84-27.1 146.84-27.1L146.84-27.1ZM170.58-13.85Q170.58-13.4 170.43-11.3L170.43-11.3 156.78-11.3Q156.98-7.2 158.21-5.58 159.43-3.95 161.68-3.95L161.68-3.95Q163.23-3.95 164.48-4.48 165.73-5 167.18-6.15L167.18-6.15 169.73-2.65Q166.23 0.75 161.33 0.75L161.33 0.75Q156.13 0.75 153.36-2.85 150.58-6.45 150.58-13L150.58-13Q150.58-19.55 153.23-23.35 155.88-27.15 160.73-27.15L160.73-27.15Q165.38-27.15 167.98-23.78 170.58-20.4 170.58-13.85L170.58-13.85ZM164.58-15.3L164.58-15.65Q164.58-19.4 163.68-21.13 162.78-22.85 160.78-22.85L160.78-22.85Q158.93-22.85 157.96-21.18 156.98-19.5 156.78-15.3L156.78-15.3 164.58-15.3ZM192.58-34.55Q196.93-34.55 200.1-33.23 203.28-31.9 205.25-28.13 207.23-24.35 207.23-17.45L207.23-17.45Q207.23-7.7 203.35-3.85 199.48 0 193.23 0L193.23 0 184.88 0 184.88-34.55 192.58-34.55ZM193.53-29.8L191.23-29.8 191.23-4.75 193.58-4.75Q195.83-4.75 197.35-5.8 198.88-6.85 199.75-9.65 200.63-12.45 200.63-17.45L200.63-17.45Q200.63-22.55 199.7-25.25 198.78-27.95 197.25-28.88 195.73-29.8 193.53-29.8L193.53-29.8ZM230.68-13.85Q230.68-13.4 230.53-11.3L230.53-11.3 216.88-11.3Q217.08-7.2 218.3-5.58 219.53-3.95 221.78-3.95L221.78-3.95Q223.33-3.95 224.58-4.48 225.83-5 227.28-6.15L227.28-6.15 229.83-2.65Q226.33 0.75 221.43 0.75L221.43 0.75Q216.23 0.75 213.45-2.85 210.68-6.45 210.68-13L210.68-13Q210.68-19.55 213.33-23.35 215.98-27.15 220.83-27.15L220.83-27.15Q225.48-27.15 228.08-23.78 230.68-20.4 230.68-13.85L230.68-13.85ZM224.68-15.3L224.68-15.65Q224.68-19.4 223.78-21.13 222.88-22.85 220.88-22.85L220.88-22.85Q219.03-22.85 218.05-21.18 217.08-19.5 216.88-15.3L216.88-15.3 224.68-15.3ZM247.37-26.45L253.42-26.45 246.52 0 239.27 0 232.17-26.45 238.52-26.45 242.87-4.95 247.37-26.45ZM275.17-13.85Q275.17-13.4 275.02-11.3L275.02-11.3 261.37-11.3Q261.57-7.2 262.8-5.58 264.02-3.95 266.27-3.95L266.27-3.95Q267.82-3.95 269.07-4.48 270.32-5 271.77-6.15L271.77-6.15 274.32-2.65Q270.82 0.75 265.92 0.75L265.92 0.75Q260.72 0.75 257.95-2.85 255.17-6.45 255.17-13L255.17-13Q255.17-19.55 257.82-23.35 260.47-27.15 265.32-27.15L265.32-27.15Q269.97-27.15 272.57-23.78 275.17-20.4 275.17-13.85L275.17-13.85ZM269.17-15.3L269.17-15.65Q269.17-19.4 268.27-21.13 267.37-22.85 265.37-22.85L265.37-22.85Q263.52-22.85 262.55-21.18 261.57-19.5 261.37-15.3L261.37-15.3 269.17-15.3ZM285.07 0.75Q282.37 0.75 280.79-0.93 279.22-2.6 279.22-5.4L279.22-5.4 279.22-37.05 285.37-37.7 285.37-5.65Q285.37-5 285.67-4.6 285.97-4.2 286.57-4.2L286.57-4.2Q286.92-4.2 287.24-4.3 287.57-4.4 287.67-4.4L287.67-4.4 288.87-0.2Q287.17 0.75 285.07 0.75L285.07 0.75ZM301.32-27.15Q306.32-27.15 309.09-23.65 311.87-20.15 311.87-13.25L311.87-13.25Q311.87-6.65 309.07-2.95 306.27 0.75 301.32 0.75L301.32 0.75Q296.37 0.75 293.57-2.88 290.77-6.5 290.77-13.25L290.77-13.25Q290.77-19.95 293.57-23.55 296.37-27.15 301.32-27.15L301.32-27.15ZM301.32-22.5Q299.17-22.5 298.17-20.38 297.17-18.25 297.17-13.25L297.17-13.25Q297.17-8.2 298.17-6.08 299.17-3.95 301.32-3.95L301.32-3.95Q303.47-3.95 304.47-6.08 305.47-8.2 305.47-13.25L305.47-13.25Q305.47-18.3 304.47-20.4 303.47-22.5 301.32-22.5L301.32-22.5ZM328.61-27.15Q332.51-27.15 334.51-23.58 336.51-20 336.51-13.3L336.51-13.3Q336.51-6.8 334.24-3.03 331.96 0.75 327.91 0.75L327.91 0.75Q324.71 0.75 322.56-2.1L322.56-2.1 322.56 10.15 316.41 10.85 316.41-26.45 321.86-26.45 322.11-23.25Q323.41-25.25 325.01-26.2 326.61-27.15 328.61-27.15L328.61-27.15ZM326.26-3.95Q328.16-3.95 329.16-6.13 330.16-8.3 330.16-13.25L330.16-13.25Q330.16-18.45 329.31-20.5 328.46-22.55 326.66-22.55L326.66-22.55Q324.36-22.55 322.56-19.25L322.56-19.25 322.56-6.45Q324.16-3.95 326.26-3.95L326.26-3.95ZM359.96-13.85Q359.96-13.4 359.81-11.3L359.81-11.3 346.16-11.3Q346.36-7.2 347.59-5.58 348.81-3.95 351.06-3.95L351.06-3.95Q352.61-3.95 353.86-4.48 355.11-5 356.56-6.15L356.56-6.15 359.11-2.65Q355.61 0.75 350.71 0.75L350.71 0.75Q345.51 0.75 342.74-2.85 339.96-6.45 339.96-13L339.96-13Q339.96-19.55 342.61-23.35 345.26-27.15 350.11-27.15L350.11-27.15Q354.76-27.15 357.36-23.78 359.96-20.4 359.96-13.85L359.96-13.85ZM353.96-15.3L353.96-15.65Q353.96-19.4 353.06-21.13 352.16-22.85 350.16-22.85L350.16-22.85Q348.31-22.85 347.34-21.18 346.36-19.5 346.16-15.3L346.16-15.3 353.96-15.3ZM375.91-27.1Q377.06-27.1 377.96-26.75L377.96-26.75 376.96-20.85Q375.96-21.1 375.11-21.1L375.11-21.1Q373.21-21.1 372.11-19.45 371.01-17.8 370.41-14.55L370.41-14.55 370.41 0 364.26 0 364.26-26.45 369.61-26.45 370.06-21.85Q371.91-27.1 375.91-27.1L375.91-27.1Z" opacity="1" transform="matrix(1,0,0,1,0,0)" fill="#000000" class="slogan-text-1" data-fill-palette-color="secondary" id="text-1"></path></svg></g></svg></g></svg></g></svg></g><g transform="matrix(1,0,0,1,0,71.42523078844475)"><svg viewBox="0 0 81.04770975129635 133.62672085862542" height="133.62672085862542" width="81.04770975129635"><g><svg xmlns="http://www.w3.org/2000/svg" xmlns:xlink="http://www.w3.org/1999/xlink" version="1.1" x="0" y="0" viewBox="33.941554115680816 23.625 32.086445884319176 52.902254248593735" enable-background="new 0 0 100 100" xml:space="preserve" height="133.62672085862542" width="81.04770975129635" class="icon-icon-0" data-fill-palette-color="accent" id="icon-0"><path fill-rule="evenodd" clip-rule="evenodd" d="M52.9 35.3C53.2 35.4 53.3 35.4 53.5 35.2 53.6 35.1 53.7 35.1 53.8 35S54 34.9 54.1 34.8 54.3 34.7 54.4 34.6 54.6 34.5 54.7 34.4 55.2 34 55.4 33.9C55.5 33.8 55.7 33.6 55.8 33.6S56 33.4 56.1 33.4 56.3 33.2 56.4 33.2 56.6 33 56.7 33L56.9 32.9 57 32.7H57.2L57.3 32.5H57.5L57.6 32.3C57.8 32.2 57.9 32.2 58.1 32.1 58.2 32.1 58.1 32 58.2 32L58.4 31.9 58.5 31.7H58.7L58.8 31.5H59L59.1 31.3H59.3L59.4 31.1H59.6L59.7 30.9C59.9 30.8 60.1 30.8 60.4 30.6L60.5 30.5C60.6 30.4 60.8 30.5 60.9 30.4L61 30.2H61.2C61.3 30.1 61.3 29.9 61.4 29.9 61.9 29.6 62.4 29.3 62.8 29.2 63.8 29.1 64.4 29.7 65.2 30.3 65.3 30.5 65.1 30.7 65.2 30.9S65.3 31.6 65.2 32V32.2C65.1 32.3 65 32.5 64.9 32.7 64.9 32.8 64.9 32.9 64.8 33 64.8 33.1 64.6 33.1 64.6 33.1 64.4 33.4 64.2 33.6 64 33.9S63.7 34.5 63.5 34.7C63.2 35 62.7 35.1 62.3 35.4 62.2 35.5 62.1 35.7 61.9 35.8 61.8 35.9 61.4 36.1 61.2 36.2 61.1 36.2 61.2 36.3 61.1 36.3S60.9 36.5 60.8 36.5 60.5 36.7 60.3 36.8C60.2 36.9 60.2 37 60.1 37H59.9L59.8 37.2C59.7 37.3 59.6 37.2 59.5 37.3S59.4 37.5 59.3 37.6 59.1 37.6 59 37.7C58.8 37.8 58.7 38.1 58.5 38.2 58.4 38.3 58.4 38.3 58.3 38.3S58.1 38.5 58 38.6H57.8L57.7 38.8H57.5L57.4 39H57.2L57.1 39.2C57 39.3 56.9 39.2 56.8 39.3 56.6 39.4 56.5 39.7 56.3 39.8L55.4 40.7C55.3 40.9 55 40.9 55 41.2 55.1 41.6 55.2 41.7 55.5 41.9 55.6 41.9 55.7 42 55.7 42L56.1 42.4C56.2 42.5 56.3 42.4 56.4 42.5 56.5 42.5 56.5 42.7 56.5 42.7 56.6 42.8 56.7 42.7 56.8 42.8 56.9 42.8 56.9 43 57 43 57.1 43.1 57.3 43.2 57.4 43.3S57.6 43.3 57.7 43.4 57.9 43.8 58.1 44C58.5 44.1 58.9 44.2 59.2 44.5L59.6 44.9C59.7 45 59.7 45.1 59.8 45.1H60C60.1 45.2 60.3 45.3 60.5 45.5 60.6 45.6 60.6 45.7 60.7 45.7H60.9C61 45.8 61.2 46 61.4 46.1 61.5 46.2 61.5 46.3 61.6 46.3H61.8C61.9 46.4 62.1 46.6 62.3 46.7 62.4 46.7 62.5 46.7 62.6 46.8S62.9 47.2 63.1 47.4C63.2 47.4 63.3 47.6 63.3 47.6H63.5V47.7C63.6 47.8 63.7 47.7 63.8 47.8 63.9 47.8 63.9 48 64 48 64.1 48.1 64.2 48 64.3 48.1 64.5 48.2 64.6 48.5 64.8 48.7 64.9 48.8 65.1 48.9 65.2 49S65.2 49.3 65.3 49.4L65.5 49.5V49.7L65.7 49.8C65.8 50 65.7 50.1 65.9 50.2 66 50.6 65.8 50.9 65.8 51.2 65.9 51.2 65.9 51.3 65.9 51.4S66.1 51.7 66 52C65.9 52.4 65.2 53 64.8 53.2 64.7 53.5 64.5 53.7 64.3 53.9 64.1 54 63.8 54 63.6 54.1 63.7 54.1 63 54.4 62.9 54.2 62.8 54.1 62.8 54.1 62.6 54.1H62.4C62.3 54 61.5 54 61.2 53.9 61.2 53.9 61.2 53.8 61.1 53.8S60.9 53.6 60.7 53.6L60.4 53.5 60.1 53.2C60 53.2 60 53.1 59.9 53.1L59.6 53C60 53.3 60 53.1 59.8 53L59.6 52.9 59.3 52.6H59.1L59 52.4H58.8C58.7 52.3 58.7 52.1 58.5 52.1L58.3 52 58 51.7C57.9 51.7 57.9 51.6 57.8 51.6 57.7 51.5 57.5 51.3 57.4 51.3S57.3 51.1 57.2 51.1H57L56.7 50.8C56.6 50.8 56.6 50.7 56.5 50.7L56.4 50.6C56 50.4 55.6 50.5 55.3 50.3 55.2 50.3 55.3 50.2 55.2 50.2 55 50.2 55 49.9 54.8 49.8H54.6C54.5 49.7 54.5 49.6 54.3 49.5 54.2 49.4 54.1 49.4 54 49.3S53.8 49.2 53.7 49.1 53.2 48.7 52.9 48.7C52.7 48.8 52.7 48.9 52.6 49.1S52.5 49.5 52.5 49.7C52.4 50.3 52.5 50.9 52.4 51.7 52.4 52 52.3 52.4 52.3 52.9 52.3 53.2 52.4 53.2 52.3 53.5 52.3 53.6 52.5 54.4 52.3 54.5 52 54.8 52 55.5 52 55.9S52 56.7 51.9 57.1C51.9 57.5 51.7 57.9 51.7 58.2 51.6 59.2 51.7 60.1 51.7 61.1V61.3C51.6 61.9 51.7 63.1 51.7 64 51.7 64.3 51.6 64.5 51.6 64.7 51.6 65 51.7 65.3 51.7 65.6 51.8 66.5 51.8 67.6 51.8 68.6 51.8 69.4 51.8 70.3 51.7 71 51.6 71.3 51.7 71.8 51.6 72.3 51.6 72.6 51.5 72.9 51.4 73.1 51.2 73.8 51.1 74.8 51.1 75.8 51 75.9 50.9 75.9 50.8 76L50.7 76.2C50.6 76.3 50.4 76.2 50.3 76.3 50.1 76.4 49.8 76.6 49.3 76.5 49.1 76.5 48.6 76.1 48.2 76H48L47.7 75.9C47.6 75.7 47.4 75.7 47.2 75.5L46.8 75.1C46.4 74.8 46.2 74.6 46.1 74.3 45.9 73.9 46 73.5 46 73 45.9 71.9 45.9 70.9 45.9 69.6 45.9 69.6 46 69.6 46 69.5 46 69.5 45.9 69.5 45.9 69.4V69.1C45.9 67.8 45.9 66.5 46 65.1 46 64.9 46.1 64.7 46.1 64.5 46.2 62.6 45.9 60.3 46.1 58.3 46.2 57.4 46.2 56.6 46.2 55.7 46.2 53.8 46 51.9 46.2 50.3 46.3 49.4 46.7 48.6 46.2 47.8 45.8 47.6 45.5 48.1 45.2 48.1 45.1 48.1 45 48.3 44.9 48.3S44.8 48.4 44.7 48.4 44.6 48.6 44.5 48.6H44.3V48.7C44.2 48.7 44.1 48.7 44 48.8L43.9 49C43.8 49.1 43.7 49 43.6 49.1L43.5 49.3C43.4 49.4 43.3 49.3 43.2 49.4S43 49.8 42.8 49.9C42.7 50 42.6 49.9 42.5 50L42.4 50.2C42.3 50.3 42.2 50.2 42.1 50.3S41.8 50.7 41.6 50.8C41.5 50.9 41.3 51 41.2 51.1S41.1 51.3 41 51.3H40.8C40.3 51.8 40.3 52 40 52 39.8 52 39.8 52.3 39.6 52.3 39.5 52.3 39.5 52.5 39.4 52.5H39.2V52.6C38.9 52.8 38.6 52.7 38.3 52.8 38.3 52.8 38.3 52.9 38.2 52.9 38 52.9 37.4 53.3 37 53.2 37 53.2 37 53.1 36.9 53.1 36.7 53.1 36.6 53.1 36.4 53 36.3 53 36.1 53 36 52.9L35.6 52.5C35.5 52.4 35.3 52.2 35.2 52 35 52 35 52 35 51.8 35 51.7 34.9 51.7 34.9 51.7 34.8 51.3 34.8 50.2 35.1 49.7 35.1 49.6 35.2 49.7 35.2 49.6S35.5 49.2 35.6 49.1H35.8C35.9 49 35.9 48.9 36.1 48.8S36.7 48.5 36.9 48.3C37.2 48 37.3 47.7 37.7 47.5 37.8 47.5 37.8 47.4 37.9 47.4 38 47.3 38.1 47.3 38.2 47.2S38.4 47.1 38.5 47 38.8 46.9 38.8 46.9C38.9 46.8 38.9 46.6 39.1 46.6 39.2 46.6 39.3 46.4 39.4 46.4S39.6 46.2 39.7 46.2 40 45.9 40.2 45.8C40.4 45.6 40.7 45.5 41 45.3S41.9 44.7 42.4 44.3C42.5 44.3 42.4 44.2 42.5 44.2S42.7 44 42.9 44C43 44 43.1 43.8 43.2 43.8S43.5 43.7 43.6 43.6C44.2 43.2 45.2 42.9 44.7 42 44.7 41.9 44.6 42 44.6 41.9 44.6 41.7 44 41.3 43.8 41.1L43.2 40.5C42.9 40.3 42.6 40.3 42.4 40.1 42.3 39.8 41.9 39.5 41.7 39.2 41.6 39.1 41.5 38.9 41.4 38.7 41.3 38.6 41 38.3 40.8 38.2 40.7 38.1 40.3 37.8 40.1 37.7 40 37.7 39.9 37.7 39.8 37.6L39.7 37.4C39.6 37.3 39.5 37.3 39.3 37.2 39.2 37.1 39.1 37.1 39 37L38.8 36.8C38.6 36.7 38.4 36.5 38.2 36.4L38.1 36.2C38 36.1 37.9 36.1 37.7 36L37.6 35.8C37.5 35.7 37.4 35.7 37.2 35.6L37.1 35.4C37 35.3 36.8 35.3 36.7 35.2L36.3 34.8C36.2 34.7 36.3 34.6 36.2 34.5 36.2 34.5 36 34.5 36 34.4 35.9 34.2 35.8 34.1 35.7 33.9 35.6 33.8 35.4 33.7 35.3 33.6S35.3 33.4 35.2 33.3 34.7 33 34.6 32.8C34.5 32.7 34.6 32.6 34.5 32.5L34.3 32.4C34.2 32.3 34.2 32.2 34.2 32.1L34.1 31.7C33.8 31.5 34 29.6 34.1 29.2 34.1 29.1 34.2 29.2 34.2 29.1S34.4 28.9 34.5 28.8 34.7 28.6 34.9 28.5C35 28.5 35 28.4 35.1 28.4S35.5 28.1 35.7 28.1C35.8 28.1 35.9 27.9 36 27.9S36.3 27.7 36.6 27.7C37.6 27.6 38.3 28.3 39.4 28.1L39.7 28.4C40.2 28.8 40.7 29.4 41.3 29.9 41.6 30.1 41.8 30.4 42.1 30.6 42.2 30.7 42.3 30.7 42.4 30.8 42.4 30.8 42.8 31.2 42.9 31.2L43.1 31.3 43.2 31.5H43.4C43.5 31.6 43.5 31.7 43.6 31.8H43.8C43.9 31.9 43.9 32 44.1 32.1S44.6 32.4 44.8 32.6C44.9 32.7 45 32.7 45.1 32.8L45.2 33H45.4C45.5 33.1 45.5 33.2 45.6 33.3H45.8C45.9 33.4 46.2 33.8 46.5 33.8 46.9 33.3 46.8 32.8 46.9 32.1 47 30.4 46.8 28 47.1 26.4 47.1 26.2 47.2 25.9 47.3 25.7 47.3 25.6 47.3 25.4 47.4 25.3 47.4 25.2 47.6 25.2 47.6 25.1 47.8 24.8 48.1 24.5 48.4 24.3 48.5 24.2 48.6 24 48.7 24 48.8 23.9 49.1 23.9 49.3 23.9 49.4 23.9 49.5 23.7 49.5 23.7H49.8C50.1 23.6 50.3 23.6 50.9 23.7 51.2 23.7 51.4 23.7 51.6 23.8 51.6 23.8 51.6 23.9 51.7 23.9S52.6 24.6 52.6 24.8C52.6 24.8 52.7 24.9 52.7 25 52.8 25.2 52.8 25.3 52.9 25.5 52.9 25.6 53 25.7 53 25.8 53.1 26.1 53.3 27.5 53.2 28.2 53.1 28.7 53.1 29.9 53.1 30.8 52.8 32.1 52.8 33.8 52.9 35.3" fill="#000000" data-fill-palette-color="accent"></path></svg></g></svg></g></svg></g><defs></defs></svg><rect width="262.2656979771832" height="247.2" fill="none" stroke="none" visibility="hidden"></rect></g></svg></g></svg>